#!OML:ASF I:\Actors\actors\Patient Classification 1\Patient 1\Session 1\Subject1.ASF
:FULLY-SPECIFIED
:DEGREES
157
root -0.00328533 17.5494 7.96089 6.62229 -1.11025 -8.84655
lowerback 1.58838 1.59307 8.42712
upperback -8.90155 2.77012 0.267612
thorax -10.0626 0.674057 -4.69452
lowerneck -9.08822 -5.85781 -4.7128
upperneck 26.498 -9.97611 9.13216
head 10.7031 -4.08094 2.85527
rclavicle 1.88845e-015 3.49861e-014
rhumerus 21.1797 17.7697 -93.7747
rradius 48.0938
rwrist 35.4204
rhand -37.9025 -51.9396
rfingers 7.12502
rthumb -10.9452 -81.6343
lclavicle 1.88845e-015 3.49861e-014
lhumerus 3.37446 -22.0539 101.506
lradius 62.5505
lwrist -6.41983
lhand -49.332 -47.1889
lfingers 7.12502
lthumb -21.9478 -18.414
rfemur -6.40867 18.5064 28.2964
rtibia 6.86682
rfoot -10.6599 -15.7317
rtoes 0.584194
lfemur 0.325736 -33.3997 -4.41709
ltibia -1.06309
lfoot -13.3123 41.4922
ltoes -0.348236
158
root -0.0121832 17.5591 7.9475 6.61314 -1.02942 -8.60903
lowerback 1.53345 1.64273 8.43926
upperback -8.93271 2.82436 0.148718
thorax -10.0513 0.693431 -4.83281
lowerneck -9.19916 -5.89107 -4.83019
upperneck 26.6402 -10.0114 9.12641
head 10.7875 -4.10124 2.86718
rclavicle -1.17283e-014 1.59028e-014
rhumerus 21.8905 17.0767 -93.6044
rradius 46.9517
rwrist 38.3467
rhand -37.0984 -51.9932
rfingers 7.12502
rthumb -10.1696 -81.7274
lclavicle -1.17283e-014 1.59028e-014
lhumerus 3.63192 -21.2408 101.436
lradius 62.0835
lwrist -7.16118
lhand -49.39 -47.09
lfingers 7.12502
lthumb -22.0036 -18.3216
rfemur -6.44571 18.6184 28.0482
rtibia 6.85784
rfoot -10.64 -15.9846
rtoes 0.594052
lfemur 0.105468 -33.2445 -4.54875
ltibia -0.955677
lfoot -13.1395 41.25
ltoes -0.333133
159
root -0.0135062 17.5658 7.93622 6.64181 -0.97264 -8.36008
lowerback 1.42367 1.6613 8.47934
upperback -8.97697 2.83367 0.0324378
thorax -10.0282 0.688826 -4.97788
lowerneck -9.27522 -5.85948 -4.77875
upperneck 26.6692 -9.9587 9.06238
head 10.8022 -4.07539 2.84057
rclavicle 2.38542e-015 2.38542e-015
rhumerus 22.4058 16.7215 -93.4908
rradius 46.2193
rwrist 39.7856
rhand -37.0301 -52.3469
rfingers 7.12502
rthumb -10.1037 -82.0844
lclavicle 2.38542e-015 2.38542e-015
lhumerus 3.75378 -20.2531 101.319
lradius 61.6901
lwrist -7.38189
lhand -49.5031 -46.465
lfingers 7.12502
lthumb -22.1121 -17.7094
rfemur -6.55177 18.718 27.7537
rtibia 6.90214
rfoot -10.6392 -16.2133
rtoes 0.734896
lfemur -0.101669 -33.0291 -4.71614
ltibia -0.862653
lfoot -12.971 40.9388
ltoes -0.467917
160
root -0.00895989 17.5697 7.92775 6.65116 -0.948708 -8.20153
lowerback 1.24829 1.68109 8.64886
upperback -8.9898 2.84555 -0.0703052
thorax -9.9279 0.680282 -5.17718
lowerneck -9.30585 -5.77802 -4.61073
upperneck 26.6144 -9.86559 9.05582
head 10.7705 -4.01684 2.82073
rclavicle 3.8763e-015 -1.51076e-014
rhumerus 22.8594 16.3167 -93.5508
rradius 45.4317
rwrist 41.1396
rhand -37.3783 -52.9838
rfingers 7.12502
rthumb -10.4396 -82.7046
lclavicle 3.8763e-015 -1.51076e-014
lhumerus 3.86523 -19.3573 101.089
lradius 61.3017
lwrist -7.1101
lhand -49.5827 -45.3038
lfingers 7.12502
lthumb -22.1886 -16.5573
rfemur -6.64789 18.7906 27.5538
rtibia 6.99937
rfoot -10.6952 -16.3678
rtoes 0.876445
lfemur -0.242565 -32.65 -4.80281
ltibia -0.803152
lfoot -12.7113 40.4977
ltoes -1.01966
161
root -0.000181066 17.5708 7.922 6.58773 -0.992787 -8.13897
lowerback 1.06104 1.73354 8.86455
upperback -8.93877 2.90641 -0.0795475
thorax -9.74368 0.703157 -5.30284
lowerneck -9.28435 -5.76558 -4.67623
upperneck 26.5599 -9.83024 9.06259
head 10.7465 -4.00821 2.83891
rclavicle 2.28602e-015 -1.59028e-014
rhumerus 23.5037 15.8077 -93.5385
rradius 44.1797
rwrist 43.0675
rhand -37.8955 -53.5473
rfingers 7.12502
rthumb -10.9384 -83.2424
lclavicle 2.28602e-015 -1.59028e-014
lhumerus 3.95181 -18.5944 100.895
lradius 60.9539
lwrist -6.72733
lhand -49.732 -43.9398
lfingers 7.12502
lthumb -22.3318 -15.2104
rfemur -6.67546 18.9127 27.4768
rtibia 7.17042
rfoot -10.8197 -16.4629
rtoes 1.22403
lfemur -0.191378 -32.3651 -4.88216
ltibia -0.827822
lfoot -12.539 40.2079
ltoes -1.53905
